<?xml version="1.0" encoding="utf-8"?>
<!-- Generator: Adobe Illustrator 23.0.1, SVG Export Plug-In . SVG Version: 6.00 Build 0)  -->
<svg version="1.1" xmlns="http://www.w3.org/2000/svg" xmlns:xlink="http://www.w3.org/1999/xlink" x="0px" y="0px"
	 viewBox="0 0 800 800" enable-background="new 0 0 800 800" xml:space="preserve">
<g id="BACKGROUND">
</g>
<g id="OBJECTS">
	<g>
		<g>
			<path fill="#414042" d="M307.55,376.75H166.5c-2.761,0-5,2.239-5,5v212.947c0,2.762,2.239,5,5,5h141.05c2.761,0,5-2.238,5-5
				V381.75C312.55,378.989,310.311,376.75,307.55,376.75z"/>
			<rect x="178.419" y="391.659" fill="#6DBEDE" width="117.94" height="112"/>
			<path fill="#FFFFFF" d="M240.985,452.119v-1.202c3.405-1.488,5.786-4.882,5.786-8.835c0-5.326-4.317-9.643-9.643-9.643
				s-9.643,4.317-9.643,9.643c0,3.953,2.381,7.347,5.786,8.835v1.202c-8.284,1.705-14.601,8.79-15.14,17.443h37.994
				C255.585,460.909,249.269,453.824,240.985,452.119z"/>
		</g>
		<rect y="608" fill="#FFAA00" width="800" height="92"/>
		<g>
			<path fill="#58595B" d="M720.5,692.75c0,4.28-3.47,7.75-7.75,7.75h-268.5c-4.28,0-7.75-3.47-7.75-7.75l0,0
				c0-4.28,3.47-7.75,7.75-7.75h268.5C717.03,685,720.5,688.47,720.5,692.75L720.5,692.75z"/>
			<path fill="#58595B" d="M701.953,679.315H455.602c-2.762,0-5-2.238-5-5v-152.36c0-2.762,2.238-5,5-5h246.351c2.762,0,5,2.238,5,5
				v152.36C706.953,677.077,704.715,679.315,701.953,679.315z"/>
			<path fill="#6DBEDE" d="M702.95,521.96v152.36c0,0.55-0.45,1-1,1H455.6c-0.55,0-1-0.45-1-1V521.96c0-0.56,0.45-1,1-1H701.95
				C702.5,520.96,702.95,521.4,702.95,521.96z"/>
			<polygon opacity="0.3" fill="#FFFFFF" points="668.76,520.96 454.6,667.21 454.6,650.09 646.55,520.96 			"/>
			<rect x="460.74" y="679.315" fill="#414042" width="228.593" height="5.685"/>
			<rect x="549" y="598.135" fill="#FFFFFF" width="134.5" height="57.365"/>
			<rect x="638.334" y="540.834" fill="#FFFFFF" width="45.166" height="45.166"/>
			<rect x="549" y="604.667" fill="#FFD269" width="134.5" height="6.666"/>
			<polygon opacity="0.3" fill="#FFFFFF" points="533,675.038 702.953,558.245 702.953,524.078 477.188,675.315 			"/>
			<path fill="#FFD269" d="M655.876,553.175c0,3.13-2.537,5.667-5.666,5.667c-3.13,0-5.667-2.537-5.667-5.667
				c0-3.129,2.537-5.666,5.667-5.666C653.339,547.509,655.876,550.046,655.876,553.175z"/>
		</g>
		<g>
			<rect x="156.957" y="622.532" fill="#FFFFFF" width="164.486" height="61.939"/>
			<polyline fill="#ECEDED" points="166.75,640 245.63,662.75 321.444,645.5 321.444,649 245.63,667.21 166.75,643.5 166.75,640 			
				"/>
		</g>
		<g>
			<g>
				<g>
					<g>
						<path fill="#FFFFFF" d="M243.628,335.296c-1.319-0.051-2.359-1.179-2.325-2.518c0.062-1.318,1.181-2.336,2.499-2.273
							c1.318,0.062,2.335,1.182,2.273,2.499C246.042,334.32,244.947,335.347,243.628,335.296z"/>
						<path fill="#FFFFFF" d="M243.443,353.929c-1.319,0.025-2.41-1.043-2.436-2.383c-0.026-1.341,1.022-2.43,2.342-2.431
							c1.32-0.001,2.41,1.066,2.436,2.383C245.811,352.815,244.763,353.904,243.443,353.929z"/>
					</g>
					<g>
						<path fill="#FFFFFF" d="M243.443,353.929c-1.319,0.025-2.41-1.043-2.436-2.383c-0.026-1.341,1.022-2.43,2.342-2.431
							c1.32-0.001,2.41,1.066,2.436,2.383C245.811,352.815,244.763,353.904,243.443,353.929z"/>
						<path fill="#FFFFFF" d="M244.316,372.553c-1.315,0.107-2.453-0.892-2.541-2.231c-0.088-1.339,0.907-2.493,2.224-2.575
							c1.317-0.082,2.454,0.918,2.541,2.231C246.626,371.292,245.631,372.445,244.316,372.553z"/>
					</g>
					<g>
						<path fill="#FFFFFF" d="M244.316,372.553c-1.315,0.107-2.453-0.892-2.541-2.231c-0.088-1.339,0.907-2.493,2.224-2.575
							c1.317-0.082,2.454,0.918,2.541,2.231C246.626,371.292,245.631,372.445,244.316,372.553z"/>
						<path fill="#FFFFFF" d="M246.428,391.088c-1.305,0.197-2.539-0.72-2.756-2.048c-0.168-1.333,0.779-2.555,2.084-2.723
							c1.312-0.17,2.483,0.756,2.647,2.062C248.617,389.678,247.733,390.892,246.428,391.088z"/>
					</g>
					<g>
						<path fill="#FFFFFF" d="M246.428,391.088c-1.305,0.197-2.539-0.72-2.756-2.048c-0.168-1.333,0.779-2.555,2.084-2.723
							c1.312-0.17,2.483,0.756,2.647,2.062C248.617,389.678,247.733,390.892,246.428,391.088z"/>
						<path fill="#FFFFFF" d="M249.867,409.438c-1.287,0.292-2.561-0.539-2.846-1.855c-0.285-1.315,0.532-2.596,1.825-2.858
							c1.294-0.263,2.567,0.568,2.846,1.855C251.97,407.865,251.153,409.146,249.867,409.438z"/>
					</g>
					<g>
						<path fill="#FFFFFF" d="M249.867,409.438c-1.287,0.292-2.561-0.539-2.846-1.855c-0.285-1.315,0.532-2.596,1.825-2.858
							c1.294-0.263,2.567,0.568,2.846,1.855C251.97,407.865,251.153,409.146,249.867,409.438z"/>
						<path fill="#FFFFFF" d="M254.636,427.495c-1.251,0.39-2.642-0.325-3.021-1.618c-0.354-1.301,0.389-2.649,1.658-3.01
							c1.27-0.36,2.577,0.378,2.921,1.648C256.564,425.778,255.905,427.102,254.636,427.495z"/>
					</g>
					<g>
						<path fill="#FFFFFF" d="M254.636,427.495c-1.251,0.39-2.642-0.325-3.021-1.618c-0.354-1.301,0.389-2.649,1.658-3.01
							c1.27-0.36,2.577,0.378,2.921,1.648C256.564,425.778,255.905,427.102,254.636,427.495z"/>
						<path fill="#FFFFFF" d="M260.892,445.107c-1.224,0.494-2.611-0.126-3.099-1.385c-0.488-1.258,0.118-2.654,1.353-3.117
							c1.236-0.463,2.623,0.157,3.098,1.384C262.72,443.217,262.115,444.612,260.892,445.107z"/>
					</g>
					<g>
						<path fill="#FFFFFF" d="M260.892,445.107c-1.224,0.494-2.611-0.126-3.099-1.385c-0.488-1.258,0.118-2.654,1.353-3.117
							c1.236-0.463,2.623,0.157,3.098,1.384C262.72,443.217,262.115,444.612,260.892,445.107z"/>
						<path fill="#FFFFFF" d="M268.608,462.136c-1.176,0.599-2.632,0.109-3.252-1.092c-0.64-1.191-0.12-2.651,1.077-3.221
							c1.186-0.564,2.585-0.048,3.209,1.111C270.247,460.103,269.784,461.537,268.608,462.136z"/>
					</g>
					<g>
						<path fill="#FFFFFF" d="M268.608,462.136c-1.176,0.599-2.632,0.109-3.252-1.092c-0.64-1.191-0.12-2.651,1.077-3.221
							c1.186-0.564,2.585-0.048,3.209,1.111C270.247,460.103,269.784,461.537,268.608,462.136z"/>
						<path fill="#FFFFFF" d="M277.73,478.464c-1.122,0.704-2.581,0.324-3.266-0.841c-0.685-1.165-0.319-2.654,0.818-3.324
							c1.137-0.67,2.598-0.293,3.264,0.842C279.213,476.275,278.845,477.766,277.73,478.464z"/>
					</g>
					<g>
						<path fill="#FFFFFF" d="M277.73,478.464c-1.122,0.704-2.581,0.324-3.266-0.841c-0.685-1.165-0.319-2.654,0.818-3.324
							c1.137-0.67,2.598-0.293,3.264,0.842C279.213,476.275,278.845,477.766,277.73,478.464z"/>
						<path fill="#FFFFFF" d="M288.394,493.837c-1.05,0.799-2.554,0.565-3.36-0.521c-0.805-1.086-0.59-2.592,0.481-3.362
							c1.072-0.77,2.576-0.536,3.359,0.521C289.658,491.531,289.443,493.037,288.394,493.837z"/>
					</g>
					<g>
						<path fill="#FFFFFF" d="M288.394,493.837c-1.05,0.799-2.554,0.565-3.36-0.521c-0.805-1.086-0.59-2.592,0.481-3.362
							c1.072-0.77,2.576-0.536,3.359,0.521C289.658,491.531,289.443,493.037,288.394,493.837z"/>
						<path fill="#FFFFFF" d="M300.366,508.206c-0.973,0.892-2.503,0.807-3.418-0.188c-0.913-0.997-0.854-2.5,0.158-3.377
							c0.983-0.852,2.52-0.771,3.409,0.198C301.405,505.807,301.339,507.315,300.366,508.206z"/>
					</g>
					<g>
						<path fill="#FFFFFF" d="M300.366,508.206c-0.973,0.892-2.503,0.807-3.418-0.188c-0.913-0.997-0.854-2.5,0.158-3.377
							c0.983-0.852,2.52-0.771,3.409,0.198C301.405,505.807,301.339,507.315,300.366,508.206z"/>
						<path fill="#FFFFFF" d="M313.564,521.46c-0.88,0.966-2.449,1.059-3.421,0.121c-0.966-0.945-1.008-2.483-0.093-3.435
							c0.915-0.951,2.419-0.974,3.358-0.053C314.353,519.008,314.461,520.476,313.564,521.46z"/>
					</g>
					<g>
						<path fill="#FFFFFF" d="M313.564,521.46c-0.88,0.966-2.449,1.059-3.421,0.121c-0.966-0.945-1.008-2.483-0.093-3.435
							c0.915-0.951,2.419-0.974,3.358-0.053C314.353,519.008,314.461,520.476,313.564,521.46z"/>
						<path fill="#FFFFFF" d="M327.891,533.481c-0.8,1.05-2.304,1.216-3.359,0.372c-1.055-0.843-1.241-2.36-0.413-3.389
							c0.828-1.028,2.331-1.194,3.359-0.372C328.505,530.914,328.691,532.432,327.891,533.481z"/>
					</g>
					<g>
						<path fill="#FFFFFF" d="M327.891,533.481c-0.8,1.05-2.304,1.216-3.359,0.372c-1.055-0.843-1.241-2.36-0.413-3.389
							c0.828-1.028,2.331-1.194,3.359-0.372C328.505,530.914,328.691,532.432,327.891,533.481z"/>
						<path fill="#FFFFFF" d="M343.233,544.165c-0.707,1.113-2.198,1.419-3.329,0.682c-1.131-0.737-1.452-2.223-0.716-3.318
							c0.736-1.096,2.227-1.399,3.329-0.682C343.62,541.565,343.941,543.051,343.233,544.165z"/>
					</g>
					<g>
						<path fill="#FFFFFF" d="M343.233,544.165c-0.707,1.113-2.198,1.419-3.329,0.682c-1.131-0.737-1.452-2.223-0.716-3.318
							c0.736-1.096,2.227-1.399,3.329-0.682C343.62,541.565,343.941,543.051,343.233,544.165z"/>
						<path fill="#FFFFFF" d="M359.394,553.546c-0.614,1.168-2.079,1.604-3.272,0.977c-1.193-0.629-1.641-2.073-0.998-3.226
							c0.642-1.153,2.107-1.59,3.272-0.977C359.56,550.934,360.008,552.378,359.394,553.546z"/>
					</g>
					<g>
						<path fill="#FFFFFF" d="M359.394,553.546c-0.614,1.168-2.079,1.604-3.272,0.977c-1.193-0.629-1.641-2.073-0.998-3.226
							c0.642-1.153,2.107-1.59,3.272-0.977C359.56,550.934,360.008,552.378,359.394,553.546z"/>
						<path fill="#FFFFFF" d="M376.243,561.612c-0.52,1.213-1.949,1.774-3.191,1.254c-1.23-0.55-1.769-2.004-1.223-3.199
							c0.551-1.206,1.954-1.707,3.155-1.17C376.198,559.004,376.763,560.398,376.243,561.612z"/>
					</g>
					<g>
						<path fill="#FFFFFF" d="M376.243,561.612c-0.52,1.213-1.949,1.774-3.191,1.254c-1.23-0.55-1.769-2.004-1.223-3.199
							c0.551-1.206,1.954-1.707,3.155-1.17C376.198,559.004,376.763,560.398,376.243,561.612z"/>
						<path fill="#FFFFFF" d="M393.656,568.365c-0.431,1.263-1.801,1.898-3.064,1.432c-1.264-0.465-1.921-1.846-1.467-3.085
							c0.454-1.238,1.825-1.874,3.06-1.419C393.419,565.749,394.077,567.13,393.656,568.365z"/>
					</g>
					<g>
						<path fill="#FFFFFF" d="M393.656,568.365c-0.431,1.263-1.801,1.898-3.064,1.432c-1.264-0.465-1.921-1.846-1.467-3.085
							c0.454-1.238,1.825-1.874,3.06-1.419C393.419,565.749,394.077,567.13,393.656,568.365z"/>
						<path fill="#FFFFFF" d="M411.538,573.734c-0.333,1.277-1.655,2.022-2.952,1.664c-1.298-0.357-2.058-1.676-1.696-2.945
							c0.361-1.27,1.684-2.014,2.952-1.664C411.111,571.139,411.871,572.457,411.538,573.734z"/>
					</g>
					<g>
						<path fill="#FFFFFF" d="M411.538,573.734c-0.333,1.277-1.655,2.022-2.952,1.664c-1.298-0.357-2.058-1.676-1.696-2.945
							c0.361-1.27,1.684-2.014,2.952-1.664C411.111,571.139,411.871,572.457,411.538,573.734z"/>
						<path fill="#FFFFFF" d="M429.752,577.806c-0.241,1.298-1.508,2.144-2.829,1.892c-1.321-0.252-2.175-1.503-1.905-2.795
							c0.269-1.292,1.535-2.139,2.829-1.893C429.14,575.258,429.993,576.509,429.752,577.806z"/>
					</g>
					<g>
						<path fill="#FFFFFF" d="M429.752,577.806c-0.241,1.298-1.508,2.144-2.829,1.892c-1.321-0.252-2.175-1.503-1.905-2.795
							c0.269-1.292,1.535-2.139,2.829-1.893C429.14,575.258,429.993,576.509,429.752,577.806z"/>
						<path fill="#FFFFFF" d="M448.2,580.607c-0.15,1.311-1.355,2.254-2.692,2.107c-1.338-0.129-2.268-1.381-2.092-2.681
							c0.179-1.315,1.375-2.185,2.686-2.06C447.411,578.117,448.351,579.296,448.2,580.607z"/>
					</g>
					<g>
						<path fill="#FFFFFF" d="M448.2,580.607c-0.15,1.311-1.355,2.254-2.692,2.107c-1.338-0.129-2.268-1.381-2.092-2.681
							c0.179-1.315,1.375-2.185,2.686-2.06C447.411,578.117,448.351,579.296,448.2,580.607z"/>
						<path fill="#FFFFFF" d="M466.795,582.149c-0.06,1.312-1.199,2.373-2.539,2.261c-1.341-0.095-2.358-1.239-2.271-2.556
							c0.088-1.316,1.225-2.308,2.538-2.215C465.835,579.751,466.855,580.825,466.795,582.149z"/>
					</g>
					<g>
						<path fill="#FFFFFF" d="M466.795,582.149c-0.06,1.312-1.199,2.373-2.539,2.261c-1.341-0.095-2.358-1.239-2.271-2.556
							c0.088-1.316,1.225-2.308,2.538-2.215C465.835,579.751,466.855,580.825,466.795,582.149z"/>
						<path fill="#FFFFFF" d="M485.452,582.394c0.029,1.319-1.036,2.396-2.381,2.404c-1.344,0.008-2.436-1.055-2.438-2.374
							c-0.003-1.32,1.064-2.396,2.38-2.403C484.33,580.014,485.423,581.075,485.452,582.394z"/>
					</g>
					<g>
						<path fill="#FFFFFF" d="M485.452,582.394c0.029,1.319-1.036,2.396-2.381,2.404c-1.344,0.008-2.436-1.055-2.438-2.374
							c-0.003-1.32,1.064-2.396,2.38-2.403C484.33,580.014,485.423,581.075,485.452,582.394z"/>
						<path fill="#FFFFFF" d="M504.081,581.346c0.119,1.315-0.87,2.47-2.21,2.581c-1.34,0.11-2.501-0.865-2.593-2.183
							c-0.093-1.316,0.897-2.471,2.209-2.58C502.8,579.056,503.961,580.031,504.081,581.346z"/>
					</g>
					<g>
						<path fill="#FFFFFF" d="M504.081,581.346c0.119,1.315-0.87,2.47-2.21,2.581c-1.34,0.11-2.501-0.865-2.593-2.183
							c-0.093-1.316,0.897-2.471,2.209-2.58C502.8,579.056,503.961,580.031,504.081,581.346z"/>
						<path fill="#FFFFFF" d="M522.597,579.04c0.21,1.303-0.696,2.532-2.024,2.747c-1.327,0.212-2.551-0.665-2.734-1.983
							c-0.182-1.296,0.725-2.533,2.024-2.741C521.161,576.852,522.386,577.737,522.597,579.04z"/>
					</g>
					<g>
						<path fill="#FFFFFF" d="M522.597,579.04c0.21,1.303-0.696,2.532-2.024,2.747c-1.327,0.212-2.551-0.665-2.734-1.983
							c-0.182-1.296,0.725-2.533,2.024-2.741C521.161,576.852,522.386,577.737,522.597,579.04z"/>
						<path fill="#FFFFFF" d="M540.913,575.463c0.302,1.284-0.515,2.584-1.821,2.902c-1.316,0.275-2.609-0.559-2.883-1.849
							c-0.273-1.293,0.553-2.545,1.841-2.813C539.329,573.391,540.611,574.178,540.913,575.463z"/>
					</g>
					<g>
						<path fill="#FFFFFF" d="M540.913,575.463c0.302,1.284-0.515,2.584-1.821,2.902c-1.316,0.275-2.609-0.559-2.883-1.849
							c-0.273-1.293,0.553-2.545,1.841-2.813C539.329,573.391,540.611,574.178,540.913,575.463z"/>
						<path fill="#FFFFFF" d="M558.935,570.593c0.398,1.271-0.326,2.608-1.622,2.973c-1.293,0.372-2.64-0.354-3.006-1.621
							c-0.367-1.267,0.362-2.59,1.628-2.953C557.203,568.636,558.544,569.346,558.935,570.593z"/>
					</g>
					<g>
						<path fill="#FFFFFF" d="M558.935,570.593c0.398,1.271-0.326,2.608-1.622,2.973c-1.293,0.372-2.64-0.354-3.006-1.621
							c-0.367-1.267,0.362-2.59,1.628-2.953C557.203,568.636,558.544,569.346,558.935,570.593z"/>
						<path fill="#FFFFFF" d="M576.538,564.35c0.49,1.225-0.135,2.605-1.394,3.084c-1.259,0.479-2.654-0.136-3.115-1.372
							c-0.461-1.236,0.164-2.617,1.395-3.084C574.653,562.51,576.049,563.124,576.538,564.35z"/>
					</g>
					<g>
						<path fill="#FFFFFF" d="M576.538,564.35c0.49,1.225-0.135,2.605-1.394,3.084c-1.259,0.479-2.654-0.136-3.115-1.372
							c-0.461-1.236,0.164-2.617,1.395-3.084C574.653,562.51,576.049,563.124,576.538,564.35z"/>
						<path fill="#FFFFFF" d="M593.603,556.742c0.587,1.183,0.076,2.615-1.139,3.201c-1.215,0.586-2.652,0.092-3.209-1.104
							c-0.557-1.196-0.047-2.629,1.139-3.201C591.58,555.066,593.017,555.56,593.603,556.742z"/>
					</g>
					<g>
						<path fill="#FFFFFF" d="M593.603,556.742c0.587,1.183,0.076,2.615-1.139,3.201c-1.215,0.586-2.652,0.092-3.209-1.104
							c-0.557-1.196-0.047-2.629,1.139-3.201C591.58,555.066,593.017,555.56,593.603,556.742z"/>
						<path fill="#FFFFFF" d="M609.998,547.765c0.685,1.128,0.3,2.607-0.859,3.301c-1.158,0.694-2.628,0.33-3.282-0.816
							c-0.654-1.146-0.269-2.624,0.859-3.301C607.844,546.271,609.313,546.637,609.998,547.765z"/>
					</g>
					<g>
						<path fill="#FFFFFF" d="M609.998,547.765c0.685,1.128,0.3,2.607-0.859,3.301c-1.158,0.694-2.628,0.33-3.282-0.816
							c-0.654-1.146-0.269-2.624,0.859-3.301C607.844,546.271,609.313,546.637,609.998,547.765z"/>
						<path fill="#FFFFFF" d="M625.565,537.398c0.783,1.064,0.534,2.576-0.554,3.38c-1.081,0.814-2.59,0.563-3.351-0.532
							c-0.744-1.072-0.479-2.561,0.571-3.354C623.289,536.11,624.782,536.336,625.565,537.398z"/>
					</g>
					<g>
						<path fill="#FFFFFF" d="M625.565,537.398c0.783,1.064,0.534,2.576-0.554,3.38c-1.081,0.814-2.59,0.563-3.351-0.532
							c-0.744-1.072-0.479-2.561,0.571-3.354C623.289,536.11,624.782,536.336,625.565,537.398z"/>
						<path fill="#FFFFFF" d="M640.126,525.646c0.88,0.984,0.778,2.521-0.225,3.431c-1.011,0.9-2.574,0.749-3.417-0.251
							c-0.858-1.019-0.695-2.482,0.286-3.357C637.744,524.583,639.246,524.662,640.126,525.646z"/>
					</g>
					<g>
						<path fill="#FFFFFF" d="M640.126,525.646c0.88,0.984,0.778,2.521-0.225,3.431c-1.011,0.9-2.574,0.749-3.417-0.251
							c-0.858-1.019-0.695-2.482,0.286-3.357C637.744,524.583,639.246,524.662,640.126,525.646z"/>
						<path fill="#FFFFFF" d="M653.494,512.534c0.961,0.881,1.056,2.461,0.102,3.425c-0.953,0.964-2.492,0.999-3.438,0.078
							c-0.944-0.921-0.959-2.425-0.034-3.36C651.05,511.743,652.509,511.632,653.494,512.534z"/>
					</g>
					<g>
						<path fill="#FFFFFF" d="M653.494,512.534c0.961,0.881,1.056,2.461,0.102,3.425c-0.953,0.964-2.492,0.999-3.438,0.078
							c-0.944-0.921-0.959-2.425-0.034-3.36C651.05,511.743,652.509,511.632,653.494,512.534z"/>
						<path fill="#FFFFFF" d="M665.477,498.132c1.073,0.797,1.266,2.31,0.413,3.366c-0.844,1.062-2.366,1.261-3.4,0.442
							c-1.035-0.819-1.209-2.318-0.391-3.349C662.926,497.568,664.432,497.356,665.477,498.132z"/>
					</g>
					<g>
						<path fill="#FFFFFF" d="M665.477,498.132c1.073,0.797,1.266,2.31,0.413,3.366c-0.844,1.062-2.366,1.261-3.4,0.442
							c-1.035-0.819-1.209-2.318-0.391-3.349C662.926,497.568,664.432,497.356,665.477,498.132z"/>
						<path fill="#FFFFFF" d="M675.857,482.525c1.138,0.67,1.477,2.147,0.758,3.299c-0.718,1.152-2.205,1.516-3.32,0.81
							c-1.115-0.705-1.453-2.183-0.758-3.298C673.233,482.22,674.721,481.856,675.857,482.525z"/>
					</g>
					<g>
						<path fill="#FFFFFF" d="M675.857,482.525c1.138,0.67,1.477,2.147,0.758,3.299c-0.718,1.152-2.205,1.516-3.32,0.81
							c-1.115-0.705-1.453-2.183-0.758-3.298C673.233,482.22,674.721,481.856,675.857,482.525z"/>
						<path fill="#FFFFFF" d="M684.492,465.891c1.202,0.544,1.706,1.98,1.126,3.209c-0.58,1.227-2.011,1.752-3.194,1.17
							c-1.185-0.583-1.688-2.02-1.126-3.209C681.859,465.872,683.289,465.348,684.492,465.891z"/>
					</g>
					<g>
						<path fill="#FFFFFF" d="M684.492,465.891c1.202,0.544,1.706,1.98,1.126,3.209c-0.58,1.227-2.011,1.752-3.194,1.17
							c-1.185-0.583-1.688-2.02-1.126-3.209C681.859,465.872,683.289,465.348,684.492,465.891z"/>
						<path fill="#FFFFFF" d="M691.316,448.442c1.253,0.414,1.919,1.793,1.487,3.08c-0.432,1.286-1.787,1.963-3.026,1.51
							c-1.239-0.454-1.904-1.833-1.486-3.08C688.709,448.705,690.063,448.029,691.316,448.442z"/>
					</g>
					<g>
						<path fill="#FFFFFF" d="M691.316,448.442c1.253,0.414,1.919,1.793,1.487,3.08c-0.432,1.286-1.787,1.963-3.026,1.51
							c-1.239-0.454-1.904-1.833-1.486-3.08C688.709,448.705,690.063,448.029,691.316,448.442z"/>
						<path fill="#FFFFFF" d="M696.32,430.396c1.289,0.284,2.107,1.591,1.829,2.917c-0.281,1.326-1.657,2.114-2.921,1.795
							c-1.295-0.327-2.001-1.606-1.728-2.893C693.769,430.927,695.032,430.112,696.32,430.396z"/>
					</g>
					<g>
						<path fill="#FFFFFF" d="M696.32,430.396c1.289,0.284,2.107,1.591,1.829,2.917c-0.281,1.326-1.657,2.114-2.921,1.795
							c-1.295-0.327-2.001-1.606-1.728-2.893C693.769,430.927,695.032,430.112,696.32,430.396z"/>
						<path fill="#FFFFFF" d="M699.543,411.954c1.309,0.158,2.21,1.373,2.01,2.712c-0.2,1.339-1.42,2.267-2.725,2.07
							c-1.306-0.196-2.205-1.411-2.01-2.712C697.014,412.724,698.232,411.796,699.543,411.954z"/>
					</g>
					<g>
						<path fill="#FFFFFF" d="M699.543,411.954c1.309,0.158,2.21,1.373,2.01,2.712c-0.2,1.339-1.42,2.267-2.725,2.07
							c-1.306-0.196-2.205-1.411-2.01-2.712C697.014,412.724,698.232,411.796,699.543,411.954z"/>
						<path fill="#FFFFFF" d="M700.715,393.22c1.319-0.001,2.377,1.105,2.362,2.47c-0.017,1.365-1.091,2.433-2.426,2.382
							c-1.303-0.049-2.366-1.156-2.351-2.47C698.314,394.289,699.396,393.221,700.715,393.22z"/>
					</g>
					<g>
						<path fill="#FFFFFF" d="M700.715,393.22c1.319-0.001,2.377,1.105,2.362,2.47c-0.017,1.365-1.091,2.433-2.426,2.382
							c-1.303-0.049-2.366-1.156-2.351-2.47C698.314,394.289,699.396,393.221,700.715,393.22z"/>
						<path fill="#FFFFFF" d="M699.529,374.464c1.308-0.175,2.506,0.785,2.676,2.143c0.189,1.357-0.803,2.562-2.117,2.683
							c-1.315,0.121-2.447-0.846-2.631-2.147C697.294,375.839,698.221,374.639,699.529,374.464z"/>
					</g>
					<g>
						<path fill="#FFFFFF" d="M699.529,374.464c1.308-0.175,2.506,0.785,2.676,2.143c0.189,1.357-0.803,2.562-2.117,2.683
							c-1.315,0.121-2.447-0.846-2.631-2.147C697.294,375.839,698.221,374.639,699.529,374.464z"/>
						<path fill="#FFFFFF" d="M695.808,356.025c1.271-0.356,2.588,0.43,2.942,1.754c0.37,1.32-0.424,2.648-1.719,2.951
							c-1.275,0.298-2.552-0.497-2.909-1.762C693.783,357.7,694.537,356.381,695.808,356.025z"/>
					</g>
					<g>
						<path fill="#FFFFFF" d="M695.808,356.025c1.271-0.356,2.588,0.43,2.942,1.754c0.37,1.32-0.424,2.648-1.719,2.951
							c-1.275,0.298-2.552-0.497-2.909-1.762C693.783,357.7,694.537,356.381,695.808,356.025z"/>
						<path fill="#FFFFFF" d="M689.525,338.288c1.207-0.533,2.615,0.061,3.143,1.326c0.529,1.265-0.039,2.681-1.268,3.161
							c-1.229,0.48-2.637-0.114-3.144-1.327C687.751,340.236,688.318,338.821,689.525,338.288z"/>
					</g>
					<g>
						<path fill="#FFFFFF" d="M689.525,338.288c1.207-0.533,2.615,0.061,3.143,1.326c0.529,1.265-0.039,2.681-1.268,3.161
							c-1.229,0.48-2.637-0.114-3.144-1.327C687.751,340.236,688.318,338.821,689.525,338.288z"/>
						<path fill="#FFFFFF" d="M680.78,321.63c1.122-0.698,2.635-0.331,3.308,0.864c0.688,1.185,0.313,2.672-0.836,3.321
							c-1.15,0.649-2.614,0.253-3.274-0.884C679.335,323.785,679.661,322.326,680.78,321.63z"/>
					</g>
					<g>
						<path fill="#FFFFFF" d="M680.78,321.63c1.122-0.698,2.635-0.331,3.308,0.864c0.688,1.185,0.313,2.672-0.836,3.321
							c-1.15,0.649-2.614,0.253-3.274-0.884C679.335,323.785,679.661,322.326,680.78,321.63z"/>
						<path fill="#FFFFFF" d="M669.827,306.349c1.017-0.841,2.544-0.665,3.411,0.392c0.856,1.066,0.653,2.616-0.39,3.41
							c-1.057,0.805-2.528,0.585-3.352-0.439C668.663,308.696,668.81,307.19,669.827,306.349z"/>
					</g>
					<g>
						<path fill="#FFFFFF" d="M669.827,306.349c1.017-0.841,2.544-0.665,3.411,0.392c0.856,1.066,0.653,2.616-0.39,3.41
							c-1.057,0.805-2.528,0.585-3.352-0.439C668.663,308.696,668.81,307.19,669.827,306.349z"/>
						<path fill="#FFFFFF" d="M657,292.624c0.901-0.964,2.426-0.974,3.405-0.023c0.979,0.951,1.014,2.475,0.076,3.404
							c-0.938,0.929-2.463,0.938-3.405,0.022C656.133,295.111,656.099,293.587,657,292.624z"/>
					</g>
					<g>
						<path fill="#FFFFFF" d="M657,292.624c0.901-0.964,2.426-0.974,3.405-0.023c0.979,0.951,1.014,2.475,0.076,3.404
							c-0.938,0.929-2.463,0.938-3.405,0.022C656.133,295.111,656.099,293.587,657,292.624z"/>
						<path fill="#FFFFFF" d="M642.558,280.63c0.776-1.062,2.309-1.286,3.397-0.466c1.073,0.84,1.282,2.361,0.465,3.398
							c-0.816,1.037-2.317,1.218-3.352,0.408C642.017,283.179,641.776,281.699,642.558,280.63z"/>
					</g>
					<g>
						<path fill="#FFFFFF" d="M642.558,280.63c0.776-1.062,2.309-1.286,3.397-0.466c1.073,0.84,1.282,2.361,0.465,3.398
							c-0.816,1.037-2.317,1.218-3.352,0.408C642.017,283.179,641.776,281.699,642.558,280.63z"/>
						<path fill="#FFFFFF" d="M626.822,270.41c0.649-1.149,2.128-1.521,3.302-0.833c1.175,0.689,1.568,2.159,0.879,3.286
							c-0.689,1.124-2.168,1.497-3.302,0.831C626.566,273.029,626.173,271.559,626.822,270.41z"/>
					</g>
					<g>
						<path fill="#FFFFFF" d="M626.822,270.41c0.649-1.149,2.128-1.521,3.302-0.833c1.175,0.689,1.568,2.159,0.879,3.286
							c-0.689,1.124-2.168,1.497-3.302,0.831C626.566,273.029,626.173,271.559,626.822,270.41z"/>
						<path fill="#FFFFFF" d="M609.998,262.106c0.512-1.216,1.943-1.77,3.196-1.237c1.241,0.559,1.791,2.002,1.237,3.197
							c-0.556,1.2-1.97,1.713-3.168,1.173C610.054,264.725,609.486,263.322,609.998,262.106z"/>
					</g>
					<g>
						<path fill="#FFFFFF" d="M609.998,262.106c0.512-1.216,1.943-1.77,3.196-1.237c1.241,0.559,1.791,2.002,1.237,3.197
							c-0.556,1.2-1.97,1.713-3.168,1.173C610.054,264.725,609.486,263.322,609.998,262.106z"/>
						<path fill="#FFFFFF" d="M592.31,255.818c0.359-1.266,1.726-2.017,3.023-1.594c1.302,0.408,2.026,1.757,1.618,3.011
							c-0.409,1.255-1.758,1.952-3.013,1.559C592.69,258.385,591.948,257.091,592.31,255.818z"/>
					</g>
					<g>
						<path fill="#FFFFFF" d="M592.31,255.818c0.359-1.266,1.726-2.017,3.023-1.594c1.302,0.408,2.026,1.757,1.618,3.011
							c-0.409,1.255-1.758,1.952-3.013,1.559C592.69,258.385,591.948,257.091,592.31,255.818z"/>
						<path fill="#FFFFFF" d="M573.942,251.81c0.189-1.317,1.441-2.209,2.791-1.97c1.352,0.23,2.25,1.467,2.006,2.764
							c-0.243,1.297-1.492,2.169-2.787,1.949C574.658,254.323,573.757,253.106,573.942,251.81z"/>
					</g>
					<g>
						<path fill="#FFFFFF" d="M573.942,251.81c0.189-1.317,1.441-2.209,2.791-1.97c1.352,0.23,2.25,1.467,2.006,2.764
							c-0.243,1.297-1.492,2.169-2.787,1.949C574.658,254.323,573.757,253.106,573.942,251.81z"/>
						<path fill="#FFFFFF" d="M555.131,250.526c-0.026-1.313,1.079-2.439,2.46-2.396c1.382,0.023,2.467,1.111,2.422,2.43
							c-0.046,1.319-1.148,2.37-2.46,2.347C556.241,252.865,555.156,251.852,555.131,250.526z"/>
					</g>
					<g>
						<path fill="#FFFFFF" d="M555.131,250.526c-0.026-1.313,1.079-2.439,2.46-2.396c1.382,0.023,2.467,1.111,2.422,2.43
							c-0.046,1.319-1.148,2.37-2.46,2.347C556.241,252.865,555.156,251.852,555.131,250.526z"/>
						<path fill="#FFFFFF" d="M536.299,252.704c-0.305-1.284,0.566-2.567,1.943-2.862c1.376-0.294,2.674,0.626,2.883,1.914
							c0.213,1.317-0.675,2.496-1.956,2.772C537.888,254.805,536.602,253.988,536.299,252.704z"/>
					</g>
					<g>
						<path fill="#FFFFFF" d="M536.299,252.704c-0.305-1.284,0.566-2.567,1.943-2.862c1.376-0.294,2.674,0.626,2.883,1.914
							c0.213,1.317-0.675,2.496-1.956,2.772C537.888,254.805,536.602,253.988,536.299,252.704z"/>
						<path fill="#FFFFFF" d="M518.456,259.588c-0.674-1.134-0.196-2.632,1.067-3.339c1.288-0.645,2.796-0.161,3.346,1.033
							c0.555,1.203,0.037,2.617-1.132,3.201C520.6,261.123,519.13,260.723,518.456,259.588z"/>
					</g>
					<g>
						<path fill="#FFFFFF" d="M518.456,259.588c-0.674-1.134-0.196-2.632,1.067-3.339c1.288-0.645,2.796-0.161,3.346,1.033
							c0.555,1.203,0.037,2.617-1.132,3.201C520.6,261.123,519.13,260.723,518.456,259.588z"/>
						<path fill="#FFFFFF" d="M503.978,272.366c-1.07-0.772-1.191-2.339-0.264-3.491c0.897-1.18,2.562-1.254,3.501-0.364
							c0.978,0.924,0.959,2.369,0.176,3.414C506.576,272.941,505.048,273.139,503.978,272.366z"/>
					</g>
					<g>
						<path fill="#FFFFFF" d="M503.978,272.366c-1.07-0.772-1.191-2.339-0.264-3.491c0.897-1.18,2.562-1.254,3.501-0.364
							c0.978,0.924,0.959,2.369,0.176,3.414C506.576,272.941,505.048,273.139,503.978,272.366z"/>
						<path fill="#FFFFFF" d="M496.046,289.985c-1.314-0.281-2.037-1.65-1.66-3.056c0.192-0.698,0.614-1.256,1.16-1.574
							c0.57-0.314,1.232-0.393,1.858-0.183c0.626,0.209,1.099,0.659,1.363,1.201c0.286,0.55,0.396,1.203,0.221,1.837
							C498.651,289.47,497.311,290.264,496.046,289.985z"/>
					</g>
					<g>
						<path fill="#FFFFFF" d="M496.046,289.985c-1.314-0.281-2.037-1.65-1.66-3.056c0.192-0.698,0.614-1.256,1.16-1.574
							c0.57-0.314,1.232-0.393,1.858-0.183c0.626,0.209,1.099,0.659,1.363,1.201c0.286,0.55,0.396,1.203,0.221,1.837
							C498.651,289.47,497.311,290.264,496.046,289.985z"/>
						<path fill="#FFFFFF" d="M494.763,309.143c-1.309,0.165-2.47-0.887-2.584-2.351c-0.152-1.465,1.003-2.646,2.295-2.654
							c1.347-0.007,2.33,1.051,2.473,2.35C497.05,307.789,496.072,308.978,494.763,309.143z"/>
					</g>
					<g>
						<path fill="#FFFFFF" d="M494.763,309.143c-1.309,0.165-2.47-0.887-2.584-2.351c-0.152-1.465,1.003-2.646,2.295-2.654
							c1.347-0.007,2.33,1.051,2.473,2.35C497.05,307.789,496.072,308.978,494.763,309.143z"/>
						<path fill="#FFFFFF" d="M501.331,327.403c-1.094,0.738-2.618,0.306-3.393-0.97c-0.74-1.297-0.286-2.865,0.892-3.429
							c1.201-0.578,2.606-0.078,3.252,1.051C502.761,325.166,502.425,326.665,501.331,327.403z"/>
					</g>
					<g>
						<path fill="#FFFFFF" d="M501.331,327.403c-1.094,0.738-2.618,0.306-3.393-0.97c-0.74-1.297-0.286-2.865,0.892-3.429
							c1.201-0.578,2.606-0.078,3.252,1.051C502.761,325.166,502.425,326.665,501.331,327.403z"/>
						<path fill="#FFFFFF" d="M515.163,340.883c-0.722,1.123-2.274,1.374-3.447,0.521c-1.195-0.816-1.419-2.429-0.595-3.445
							c0.838-1.035,2.307-1.165,3.388-0.431C515.565,338.297,515.868,339.787,515.163,340.883z"/>
					</g>
					<g>
						<path fill="#FFFFFF" d="M515.163,340.883c-0.722,1.123-2.274,1.374-3.447,0.521c-1.195-0.816-1.419-2.429-0.595-3.445
							c0.838-1.035,2.307-1.165,3.388-0.431C515.565,338.297,515.868,339.787,515.163,340.883z"/>
						<path fill="#FFFFFF" d="M532.5,348.866c-0.387,1.27-1.787,1.962-3.114,1.491c-1.336-0.439-2.017-1.861-1.539-3.094
							c0.476-1.228,1.849-1.831,3.094-1.423C532.175,346.279,532.881,347.611,532.5,348.866z"/>
					</g>
					<g>
						<path fill="#FFFFFF" d="M532.5,348.866c-0.387,1.27-1.787,1.962-3.114,1.491c-1.336-0.439-2.017-1.861-1.539-3.094
							c0.476-1.228,1.849-1.831,3.094-1.423C532.175,346.279,532.881,347.611,532.5,348.866z"/>
						<path fill="#FFFFFF" d="M551.106,352.493c-0.112,1.321-1.329,2.292-2.711,2.119c-1.385-0.145-2.347-1.378-2.153-2.685
							c0.191-1.304,1.399-2.196,2.704-2.06C550.248,350.03,551.218,351.185,551.106,352.493z"/>
					</g>
					<g>
						<path fill="#FFFFFF" d="M551.106,352.493c-0.112,1.321-1.329,2.292-2.711,2.119c-1.385-0.145-2.347-1.378-2.153-2.685
							c0.191-1.304,1.399-2.196,2.704-2.06C550.248,350.03,551.218,351.185,551.106,352.493z"/>
						<path fill="#FFFFFF" d="M570.128,351.874c0.223,1.303-0.706,2.562-2.106,2.732c-1.392,0.192-2.634-0.734-2.767-2.062
							c-0.124-1.298,0.824-2.492,2.122-2.671C568.68,349.716,569.906,350.575,570.128,351.874z"/>
					</g>
					<g>
						<path fill="#FFFFFF" d="M570.128,351.874c0.223,1.303-0.706,2.562-2.106,2.732c-1.392,0.192-2.634-0.734-2.767-2.062
							c-0.124-1.298,0.824-2.492,2.122-2.671C568.68,349.716,569.906,350.575,570.128,351.874z"/>
						<path fill="#FFFFFF" d="M588.394,347.201c0.425,1.249-0.287,2.606-1.588,3.029c-1.296,0.438-2.676-0.302-3.046-1.562
							c-0.373-1.271,0.357-2.57,1.602-2.991C586.611,345.269,587.97,345.951,588.394,347.201z"/>
					</g>
					<g>
						<path fill="#FFFFFF" d="M588.394,347.201c0.425,1.249-0.287,2.606-1.588,3.029c-1.296,0.438-2.676-0.302-3.046-1.562
							c-0.373-1.271,0.357-2.57,1.602-2.991C586.611,345.269,587.97,345.951,588.394,347.201z"/>
						<path fill="#FFFFFF" d="M605.777,340.082c0.578,1.186,0.047,2.623-1.185,3.208c-1.226,0.6-2.685,0.038-3.215-1.163
							c-0.536-1.214,0.022-2.591,1.202-3.17C603.767,338.393,605.198,338.896,605.777,340.082z"/>
					</g>
					<g>
						<path fill="#FFFFFF" d="M605.777,340.082c0.578,1.186,0.047,2.623-1.185,3.208c-1.226,0.6-2.685,0.038-3.215-1.163
							c-0.536-1.214,0.022-2.591,1.202-3.17C603.767,338.393,605.198,338.896,605.777,340.082z"/>
						<path fill="#FFFFFF" d="M622.132,330.834c0.722,1.093,0.401,2.628-0.763,3.345c-1.167,0.713-2.666,0.375-3.347-0.755
							c-0.681-1.13-0.323-2.602,0.799-3.287C619.94,329.449,621.399,329.724,622.132,330.834z"/>
					</g>
					<g>
						<path fill="#FFFFFF" d="M622.132,330.834c0.722,1.093,0.401,2.628-0.763,3.345c-1.167,0.713-2.666,0.375-3.347-0.755
							c-0.681-1.13-0.323-2.602,0.799-3.287C619.94,329.449,621.399,329.724,622.132,330.834z"/>
						<path fill="#FFFFFF" d="M637.105,319.418c0.882,0.982,0.751,2.508-0.292,3.407c-1.043,0.899-2.561,0.802-3.405-0.233
							c-0.823-1.011-0.694-2.54,0.3-3.397C634.702,318.337,636.224,318.436,637.105,319.418z"/>
					</g>
					<g>
						<path fill="#FFFFFF" d="M637.105,319.418c0.882,0.982,0.751,2.508-0.292,3.407c-1.043,0.899-2.561,0.802-3.405-0.233
							c-0.823-1.011-0.694-2.54,0.3-3.397C634.702,318.337,636.224,318.436,637.105,319.418z"/>
						<path fill="#FFFFFF" d="M650.06,305.671c1.029,0.797,1.229,2.386,0.322,3.436c-0.903,1.053-2.442,1.204-3.436,0.335
							c-0.994-0.868-1.105-2.379-0.25-3.375C647.557,305.077,649.004,304.851,650.06,305.671z"/>
					</g>
					<g>
						<path fill="#FFFFFF" d="M650.06,305.671c1.029,0.797,1.229,2.386,0.322,3.436c-0.903,1.053-2.442,1.204-3.436,0.335
							c-0.994-0.868-1.105-2.379-0.25-3.375C647.557,305.077,649.004,304.851,650.06,305.671z"/>
						<path fill="#FFFFFF" d="M660.146,289.621c1.19,0.57,1.643,2.048,1.01,3.298c-0.317,0.622-0.833,1.062-1.425,1.254
							c-0.608,0.183-1.27,0.129-1.846-0.193c-0.575-0.322-0.958-0.849-1.116-1.432c-0.175-0.593-0.146-1.254,0.152-1.84
							C657.513,289.538,658.957,289.05,660.146,289.621z"/>
					</g>
					<g>
						<path fill="#FFFFFF" d="M660.146,289.621c1.19,0.57,1.643,2.048,1.01,3.298c-0.317,0.622-0.833,1.062-1.425,1.254
							c-0.608,0.183-1.27,0.129-1.846-0.193c-0.575-0.322-0.958-0.849-1.116-1.432c-0.175-0.593-0.146-1.254,0.152-1.84
							C657.513,289.538,658.957,289.05,660.146,289.621z"/>
						<path fill="#FFFFFF" d="M666.426,271.686c1.314,0.283,2.075,1.611,1.714,2.971c-0.357,1.36-1.677,2.163-2.943,1.793
							c-1.267-0.37-2.021-1.698-1.688-2.965C663.847,272.219,665.16,271.415,666.426,271.686z"/>
					</g>
					<g>
						<path fill="#FFFFFF" d="M666.426,271.686c1.314,0.283,2.075,1.611,1.714,2.971c-0.357,1.36-1.677,2.163-2.943,1.793
							c-1.267-0.37-2.021-1.698-1.688-2.965C663.847,272.219,665.16,271.415,666.426,271.686z"/>
						<path fill="#FFFFFF" d="M668.317,252.778c1.315-0.032,2.455,1.107,2.374,2.501c-0.05,1.4-1.159,2.482-2.478,2.416
							c-1.318-0.066-2.347-1.183-2.299-2.493C665.994,253.894,666.994,252.809,668.317,252.778z"/>
					</g>
					<g>
						<path fill="#FFFFFF" d="M668.317,252.778c1.315-0.032,2.455,1.107,2.374,2.501c-0.05,1.4-1.159,2.482-2.478,2.416
							c-1.318-0.066-2.347-1.183-2.299-2.493C665.994,253.894,666.994,252.809,668.317,252.778z"/>
						<path fill="#FFFFFF" d="M665.215,233.921c1.254-0.412,2.615,0.36,3.035,1.724c0.373,1.376-0.429,2.752-1.706,3.047
							c-1.294,0.299-2.554-0.5-2.896-1.762C663.261,235.68,663.961,234.333,665.215,233.921z"/>
					</g>
					<g>
						<path fill="#FFFFFF" d="M665.215,233.921c1.254-0.412,2.615,0.36,3.035,1.724c0.373,1.376-0.429,2.752-1.706,3.047
							c-1.294,0.299-2.554-0.5-2.896-1.762C663.261,235.68,663.961,234.333,665.215,233.921z"/>
						<path fill="#FFFFFF" d="M656.875,216.752c1.091-0.742,2.592-0.374,3.35,0.823c0.376,0.596,0.49,1.273,0.358,1.881
							c-0.151,0.621-0.535,1.163-1.107,1.492c-0.572,0.328-1.222,0.385-1.804,0.222c-0.603-0.151-1.152-0.515-1.504-1.071
							C655.468,218.993,655.783,217.494,656.875,216.752z"/>
					</g>
					<g>
						<path fill="#FFFFFF" d="M656.875,216.752c1.091-0.742,2.592-0.374,3.35,0.823c0.376,0.596,0.49,1.273,0.358,1.881
							c-0.151,0.621-0.535,1.163-1.107,1.492c-0.572,0.328-1.222,0.385-1.804,0.222c-0.603-0.151-1.152-0.515-1.504-1.071
							C655.468,218.993,655.783,217.494,656.875,216.752z"/>
						<path fill="#FFFFFF" d="M644.431,202.383c0.888-0.977,2.427-0.983,3.436-0.015c1.015,0.962,1.05,2.504,0.087,3.433
							c-0.938,0.902-2.463,0.896-3.416-0.006C643.592,204.887,643.543,203.359,644.431,202.383z"/>
					</g>
					<g>
						<path fill="#FFFFFF" d="M644.431,202.383c0.888-0.977,2.427-0.983,3.436-0.015c1.015,0.962,1.05,2.504,0.087,3.433
							c-0.938,0.902-2.463,0.896-3.416-0.006C643.592,204.887,643.543,203.359,644.431,202.383z"/>
						<path fill="#FFFFFF" d="M629.309,191.031c0.691-1.125,2.202-1.446,3.375-0.718c1.155,0.758,1.461,2.296,0.716,3.376
							c-0.753,1.092-2.224,1.349-3.32,0.629C628.963,193.627,628.617,192.155,629.309,191.031z"/>
					</g>
					<g>
						<path fill="#FFFFFF" d="M629.309,191.031c0.691-1.125,2.202-1.446,3.375-0.718c1.155,0.758,1.461,2.296,0.716,3.376
							c-0.753,1.092-2.224,1.349-3.32,0.629C628.963,193.627,628.617,192.155,629.309,191.031z"/>
						<path fill="#FFFFFF" d="M612.597,182.362c0.518-1.213,1.954-1.747,3.204-1.191c1.25,0.555,1.804,1.97,1.229,3.175
							c-0.562,1.177-1.997,1.71-3.198,1.178C612.631,184.991,612.077,183.575,612.597,182.362z"/>
					</g>
					<g>
						<path fill="#FFFFFF" d="M612.597,182.362c0.518-1.213,1.954-1.747,3.204-1.191c1.25,0.555,1.804,1.97,1.229,3.175
							c-0.562,1.177-1.997,1.71-3.198,1.178C612.631,184.991,612.077,183.575,612.597,182.362z"/>
						<path fill="#FFFFFF" d="M594.947,175.992c0.375-1.265,1.731-1.968,3.03-1.569c1.298,0.4,2.016,1.731,1.597,2.997
							c-0.412,1.239-1.77,1.949-3.027,1.561C595.289,178.596,594.573,177.258,594.947,175.992z"/>
					</g>
					<g>
						<path fill="#FFFFFF" d="M594.947,175.992c0.375-1.265,1.731-1.968,3.03-1.569c1.298,0.4,2.016,1.731,1.597,2.997
							c-0.412,1.239-1.77,1.949-3.027,1.561C595.289,178.596,594.573,177.258,594.947,175.992z"/>
						<path fill="#FFFFFF" d="M576.772,171.527c0.254-1.295,1.534-2.136,2.86-1.879c1.322,0.277,2.155,1.583,1.868,2.865
							c-0.29,1.293-1.561,2.081-2.848,1.811C577.361,174.074,576.519,172.822,576.772,171.527z"/>
					</g>
					<g>
						<path fill="#FFFFFF" d="M576.772,171.527c0.254-1.295,1.534-2.136,2.86-1.879c1.322,0.277,2.155,1.583,1.868,2.865
							c-0.29,1.293-1.561,2.081-2.848,1.811C577.361,174.074,576.519,172.822,576.772,171.527z"/>
						<path fill="#FFFFFF" d="M558.316,168.636c0.151-1.311,1.357-2.234,2.692-2.064c1.335,0.171,2.271,1.369,2.091,2.676
							c-0.181,1.307-1.387,2.231-2.692,2.064C559.102,171.145,558.165,169.947,558.316,168.636z"/>
					</g>
					<g>
						<path fill="#FFFFFF" d="M558.316,168.636c0.151-1.311,1.357-2.234,2.692-2.064c1.335,0.171,2.271,1.369,2.091,2.676
							c-0.181,1.307-1.387,2.231-2.692,2.064C559.102,171.145,558.165,169.947,558.316,168.636z"/>
						<path fill="#FFFFFF" d="M539.726,167.099c0.063-1.314,1.203-2.357,2.542-2.253c1.34,0.091,2.354,1.232,2.264,2.548
							c-0.09,1.316-1.228,2.311-2.541,2.221C540.677,169.512,539.66,168.42,539.726,167.099z"/>
					</g>
					<g>
						<path fill="#FFFFFF" d="M539.726,167.099c0.063-1.314,1.203-2.357,2.542-2.253c1.34,0.091,2.354,1.232,2.264,2.548
							c-0.09,1.316-1.228,2.311-2.541,2.221C540.677,169.512,539.66,168.42,539.726,167.099z"/>
						<path fill="#FFFFFF" d="M521.111,166.687c0-1.32,1.069-2.389,2.389-2.389c1.339,0.018,2.417,1.101,2.405,2.42
							c-0.011,1.319-1.089,2.374-2.405,2.357C522.181,169.076,521.111,168.006,521.111,166.687z"/>
					</g>
				</g>
			</g>
		</g>
		<rect x="388.364" y="639.038" fill="#FFFFFF" width="29.991" height="160.962"/>
		<rect x="349.265" y="639.038" fill="#FFFFFF" width="10.152" height="160.962"/>
		<rect x="444.575" y="639.038" fill="#FFFFFF" width="11.096" height="160.962"/>
		<g>
			<polygon fill="#CCCECF" points="278.194,540.636 403.359,476.5 528.524,540.636 403.359,609.5 			"/>
			<rect x="296.359" y="427.667" fill="#FFFFFF" width="214" height="192.667"/>
			<rect x="315.143" y="451" fill="#6DBEDE" width="18.19" height="14.5"/>
			<rect x="336.81" y="451" fill="#ECEDED" width="49.857" height="14.5"/>
			<rect x="442.143" y="544.967" fill="#ECEDED" width="49.857" height="14.5"/>
			<rect x="333.333" y="479" fill="#E1E2E3" width="158.667" height="4.5"/>
			<rect x="315.143" y="489.667" fill="#E1E2E3" width="176.857" height="4.5"/>
			<rect x="315.143" y="500.334" fill="#E1E2E3" width="176.857" height="4.5"/>
			<rect x="315.143" y="511.001" fill="#E1E2E3" width="176.857" height="4.5"/>
			<rect x="315.143" y="521.668" fill="#E1E2E3" width="176.857" height="4.5"/>
			<polygon fill="#E1E2E3" points="403.4,594.238 528.524,540.636 528.524,639.038 278.194,639.038 278.194,540.636 			"/>
		</g>
		<g>
			<polygon fill="#FFFFFF" points="549,427.667 549,478.334 639.047,478.334 653.667,492.417 653.667,427.667 			"/>
			<rect x="564.334" y="443.667" fill="#E1E2E3" width="74" height="4.5"/>
			<rect x="564.334" y="456" fill="#E1E2E3" width="74" height="4.5"/>
		</g>
		<rect x="140.205" y="598.136" fill="#6DBEDE" width="18.19" height="14.5"/>
		<g>
			<path fill="#58595B" d="M173.419,731.329H88.581c-2.761,0-5-2.238-5-5v-152.36c0-2.762,2.239-5,5-5h84.839c2.761,0,5,2.238,5,5
				v152.36C178.419,729.091,176.181,731.329,173.419,731.329z"/>
			<path fill="#6DBEDE" d="M88.581,702.334c-0.551,0-1-0.448-1-1V573.969c0-0.552,0.449-1,1-1h84.839c0.551,0,1,0.448,1,1v127.365
				c0,0.552-0.449,1-1,1H88.581z"/>
			<path fill="#414042" d="M138,715.667c0,4.05-3.283,7.333-7.333,7.333c-4.05,0-7.334-3.283-7.334-7.333s3.283-7.333,7.334-7.333
				C134.717,708.334,138,711.617,138,715.667z"/>
			<polygon opacity="0.3" fill="#FFFFFF" points="87.581,665.5 174.419,605.386 174.419,571.219 87.581,629.5 			"/>
			<polygon opacity="0.3" fill="#FFFFFF" points="87.581,701.334 174.419,641 174.419,618.359 87.581,676.641 			"/>
			<rect x="100.366" y="592.032" fill="#FFFFFF" width="22.968" height="22.968"/>
			<rect x="100.366" y="622.532" fill="#FFFFFF" width="61.134" height="22.968"/>
		</g>
		<g>
			<polygon fill="#FFFFFF" points="253.967,540.636 253.967,591.303 163.92,591.303 149.3,605.386 149.3,540.636 			"/>
			<rect x="164.633" y="556.636" fill="#E1E2E3" width="74" height="4.5"/>
			<rect x="164.633" y="568.969" fill="#E1E2E3" width="74" height="4.5"/>
		</g>
		<g>
			<rect x="486.626" y="675.32" fill="#A35278" width="102.764" height="56.512"/>
			<polygon fill="#A35278" points="589.39,646 589.39,676.667 567.75,676.667 			"/>
			<path fill="#FFFFFF" d="M525.344,703.509c0,1.753-1.421,3.174-3.174,3.174c-1.753,0-3.174-1.421-3.174-3.174
				c0-1.753,1.421-3.174,3.174-3.174C523.923,700.335,525.344,701.756,525.344,703.509z"/>
			<path fill="#FFFFFF" d="M541.188,703.509c0,1.753-1.421,3.174-3.174,3.174c-1.753,0-3.174-1.421-3.174-3.174
				c0-1.753,1.421-3.174,3.174-3.174C539.768,700.335,541.188,701.756,541.188,703.509z"/>
			<path fill="#FFFFFF" d="M557.033,703.509c0,1.753-1.421,3.174-3.174,3.174c-1.753,0-3.174-1.421-3.174-3.174
				c0-1.753,1.421-3.174,3.174-3.174C555.612,700.335,557.033,701.756,557.033,703.509z"/>
		</g>
		<g>
			<polygon fill="#FFFFFF" points="262.61,119.07 232.75,148.92 232.75,142.91 259.6,116.06 			"/>
			<polygon fill="#FFFFFF" points="262.61,192.37 259.6,195.37 232.75,168.53 232.75,162.51 			"/>
			<rect x="232.75" y="153.89" fill="#FFFFFF" width="28.46" height="4.34"/>
			<path fill="#FFFFFF" d="M276.148,302.085l-19.276-24.882c-3.382-4.366-10.267-6.208-15.378-4.115l-9.902,4.056
				c-2.556,1.047-6.336,0.447-8.29-1.504c-8.844-8.829-31.052-34.9-36.752-78.749c-0.356-2.738,1.639-5.355,4.359-5.831
				l13.022-2.283c5.44-0.954,9.297-6.169,8.616-11.65l-4.41-35.463c-0.682-5.481-5.691-9.501-11.189-8.979l-20.363,1.934
				c-5.498,0.522-11.811,5.02-14.1,10.046l-5.093,11.184c-1.145,2.513-2.12,6.79-2.056,9.551
				c0.489,21.09,6.682,104.102,72.26,156.431c2.159,1.721,6.143,3.527,8.844,4.1l13.145,2.795c2.701,0.574,6.715-0.26,8.965-1.859
				l15.573-11.078C278.624,312.585,279.531,306.45,276.148,302.085z"/>
			
				<rect x="123.79" y="247.441" transform="matrix(0.8668 -0.4987 0.4987 0.8668 -118.9444 110.2083)" fill="#FFE4C9" width="45.979" height="60.528"/>
			<polygon fill="#A35278" points="156.5,316.23 0,398.97 0,307.72 118.79,244.92 			"/>
			<path fill="#FFE4C9" d="M226.62,242.253c2.968,4.913,1.392,11.302-3.522,14.272l-50.37,30.429
				c-4.914,2.967-11.304,1.391-14.271-3.522l0,0c-2.968-4.913-1.392-11.303,3.522-14.272l50.37-30.429
				C217.262,235.762,223.651,237.339,226.62,242.253L226.62,242.253z"/>
			<path fill="#FFE4C9" d="M229.809,256.76c2.632,4.357,1.234,10.023-3.124,12.656l-44.667,26.986
				c-4.358,2.631-10.024,1.231-12.656-3.125l0,0c-2.632-4.356-1.234-10.023,3.123-12.656l44.668-26.985
				C221.51,251.004,227.177,252.403,229.809,256.76L229.809,256.76z"/>
			<path fill="#FFE4C9" d="M218.265,224.049c2.968,4.913,1.391,11.303-3.522,14.271l-50.369,30.43
				c-4.914,2.968-11.304,1.391-14.272-3.522l0,0c-2.968-4.913-1.391-11.303,3.522-14.272l50.369-30.429
				C208.907,217.559,215.296,219.136,218.265,224.049L218.265,224.049z"/>
			<path fill="#FFE4C9" d="M210.378,206.108c2.968,4.914,1.391,11.303-3.522,14.272l-50.369,30.429
				c-4.914,2.968-11.304,1.391-14.272-3.522l0,0c-2.968-4.914-1.391-11.303,3.522-14.272l50.369-30.429
				C201.02,199.618,207.41,201.195,210.378,206.108L210.378,206.108z"/>
			<polygon fill="#FFE4C9" points="141.592,237.747 141.872,237.248 160.248,204.438 164.799,221.499 			"/>
			<polygon fill="#FFFFFF" points="121.949,250.895 128.477,247.539 161.669,307.54 153.817,311.168 			"/>
			<path fill="#FFFFFF" d="M249,334.084c0,2.807-2.276,5.083-5.083,5.083l0,0c-2.808,0-5.084-2.276-5.084-5.083v-7.334
				c0-2.807,2.276-5.083,5.084-5.083l0,0c2.807,0,5.083,2.276,5.083,5.083V334.084z"/>
		</g>
	</g>
</g>
<g id="DESIGNED_BY_FREEPIK">
</g>
</svg>
