<?xml version="1.0" standalone="no"?>
<!DOCTYPE svg PUBLIC "-//W3C//DTD SVG 20010904//EN"
 "http://www.w3.org/TR/2001/REC-SVG-20010904/DTD/svg10.dtd">
<svg version="1.0" xmlns="http://www.w3.org/2000/svg"
 width="511.000000pt" height="511.000000pt" viewBox="0 0 511.000000 511.000000"
 preserveAspectRatio="xMidYMid meet">
<metadata>
Created by potrace 1.14, written by Peter Selinger 2001-2017
</metadata>
<g transform="translate(0.000000,511.000000) scale(0.100000,-0.100000)"
fill="#000000" stroke="none">
<path d="M2415 5093 c-111 -22 -89 -11 -925 -493 -107 -62 -208 -121 -225
-130 -322 -184 -694 -402 -743 -437 -111 -79 -202 -210 -248 -358 -18 -57 -19
-111 -19 -1125 l0 -1065 28 -80 c48 -136 132 -253 236 -329 26 -19 117 -75
202 -124 249 -143 555 -320 591 -341 18 -11 44 -26 58 -34 14 -7 113 -64 220
-127 107 -62 215 -124 240 -138 25 -13 50 -28 55 -32 6 -4 33 -20 60 -35 28
-15 111 -63 185 -106 74 -43 171 -90 215 -105 71 -25 94 -28 205 -28 191 1
217 10 575 219 121 70 245 141 275 158 30 16 60 33 65 38 10 7 214 125 463
268 37 21 144 82 237 136 94 54 217 126 275 159 128 74 148 88 208 146 108
104 179 242 199 385 4 28 7 502 7 1055 0 746 -3 1019 -12 1059 -30 134 -97
255 -193 348 -63 61 -81 73 -344 225 -110 63 -319 184 -464 268 -146 84 -280
161 -298 171 -59 34 -94 54 -388 224 -292 169 -363 205 -452 226 -71 17 -209
18 -288 2z m-1222 -1607 c43 -18 60 -40 92 -116 14 -36 32 -78 40 -95 7 -16
23 -55 35 -85 12 -30 28 -68 35 -85 8 -16 109 -259 225 -540 132 -319 211
-523 211 -545 1 -22 -34 -120 -96 -270 -54 -129 -101 -238 -104 -243 -4 -4
-33 57 -66 135 -32 79 -66 161 -76 183 -10 22 -66 157 -124 300 -59 143 -116
279 -126 302 -11 23 -19 45 -19 48 0 3 -9 25 -19 48 -40 90 -401 963 -401 972
0 3 81 5 180 5 130 0 190 -4 213 -14z m1841 -8 c-4 -13 -74 -184 -155 -381
-82 -196 -149 -359 -149 -362 0 -2 -12 -30 -26 -62 -14 -32 -30 -67 -34 -78
-157 -381 -259 -627 -285 -690 -19 -44 -86 -206 -150 -359 -63 -154 -123 -289
-133 -299 -36 -40 -61 -44 -254 -45 -104 -1 -188 1 -188 4 0 3 6 20 14 37 8
18 30 70 50 117 19 47 100 243 179 435 80 193 189 456 242 585 53 129 102 249
110 265 17 40 89 214 165 400 34 83 67 164 75 180 7 17 30 71 50 120 42 102
48 111 90 137 26 16 53 18 218 18 l188 0 -7 -22z m1260 -15 c-8 -21 -25 -60
-36 -88 -69 -173 -107 -244 -140 -261 -27 -14 -96 -16 -555 -16 -288 0 -526 2
-528 4 -2 1 28 77 65 168 67 161 93 204 135 220 11 5 257 9 548 9 l527 1 -16
-37z m-388 -916 c8 -8 -123 -327 -145 -351 -41 -46 -39 -46 -596 -46 -289 0
-525 2 -525 5 0 11 132 322 146 343 9 13 32 31 53 40 33 15 92 17 549 16 282
0 515 -3 518 -7z"/>
</g>
</svg>
