<?xml version="1.0" encoding="utf-8"?>
<svg version="1.1" id="Layer_1" xmlns="http://www.w3.org/2000/svg" xmlns:xlink="http://www.w3.org/1999/xlink" x="0px" y="0px"
	 viewBox="0 0 250 250" style="enable-background:new 0 0 250 250;" xml:space="preserve">
<style type="text/css">
	.st0{fill:none;}
	.st1{fill:#38B1E4;}
</style>
<g id="svgg">
	<path id="path0" class="st0" d="M-33.6-26.1"/>
	<path id="path1" class="st1" d="M14.2,51.1l-1.8,1.8v63.7c0,58.5,0.1,63.8,1,64.6c0.8,0.7,8.7,0.9,44.7,1l43.6,0.2l-0.8,5.8
		c-1.4,10.3-3.1,14.4-7.4,18.4c-5,4.6-5.4,4.5,28.9,4.5c34,0,34.1,0,29.3-4c-4.4-3.7-7.1-10.6-7.9-20.1l-0.4-4.6h44.4
		c39.2,0,44.6-0.1,45.8-1l1.4-1v-63.8V52.8l-1.8-1.8l-1.8-1.8H123.6H15.9L14.2,51.1 M228,114.5l0.2,58.1H123.6H19.1v-57.8
		c0-31.8,0.2-58,0.4-58.2c0.2-0.2,47.2-0.3,104.4-0.3l104,0.2L228,114.5 M75.2,72.7c-7.8,4-14,17.1-8.1,17.1c6.7,0,14.6-9,14.6-16.6
		C81.6,70.9,79,70.8,75.2,72.7 M121.5,110.3v36.5h1.5h1.5v-36.5V73.8H123h-1.5V110.3 M206.7,77.3c-0.8,0.1-7.6,1.1-15,2.1
		s-14.1,2-14.9,2.1l-1.4,0.3v14.4v14.4H195h19.6V93.8V76.9l-3.2,0.1C209.7,77,207.6,77.2,206.7,77.3 M167.2,82.7
		c-2.7,0.4-8.5,1.3-12.9,1.8c-4.4,0.6-8.5,1.2-9,1.3c-1,0.3-1.1,1.4-1.1,12.5v12.2h14.7h14.7l-0.2-14.2c-0.1-8.8-0.4-14.3-0.8-14.3
		C172.3,82,169.9,82.3,167.2,82.7 M49.5,90.3c-17.6,4.6-21,29.1-7,49.8c6.1,9,9.9,10.5,18.8,7.6c5.3-1.8,8-1.7,12.9,0.4
		c7.6,3.3,13.2,0.1,19.8-11.4c3.7-6.5,3.9-8.3,0.8-10.3c-9.2-6.1-9.9-22.1-1.1-26.8c2-1.1,2-1.9,0-4.2C89,90,80.3,88.5,71.5,91.6
		l-5.6,1.9L61.7,92C57.1,90.2,52.3,89.6,49.5,90.3 M144.2,125.9V138l6,0.8c3.3,0.4,9.6,1.3,13.9,1.9c4.4,0.6,8.3,1.2,8.7,1.2
		c0.6,0,0.8-3.2,0.8-14.1v-14.1h-14.7h-14.7V125.9 M175.4,128v14.3l12.4,1.7c6.8,0.9,14.8,2.1,17.8,2.6s6.2,0.9,7.2,0.9h1.8v-16.9
		v-16.9H195h-19.6L175.4,128 M125.2,179.3c1.3,2.4-1.4,4.9-3.7,3.7c-1.2-0.6-1.7-3.6-0.8-4.5C121.6,177.6,124.5,178.1,125.2,179.3"
		/>
</g>
</svg>
